<svg version="1.1" id="Layer_1" xmlns="http://www.w3.org/2000/svg" xmlns:xlink="http://www.w3.org/1999/xlink" x="0px" y="0px"
	 width="100%" viewBox="0 0 736 544" enable-background="new 0 0 736 544" xml:space="preserve">
<path fill="#000000" opacity="1.000000" stroke="none" 
	d="
M454.945679,288.990906 
	C457.603210,284.926147 460.409027,281.339508 462.458496,277.363068 
	C467.512238,267.557617 476.046143,264.173615 486.304138,263.754120 
	C490.630402,263.577240 494.970673,263.643250 499.302124,263.726196 
	C502.619568,263.789734 505.013000,262.561462 506.673889,259.601929 
	C519.365540,236.987106 528.054199,213.308701 525.646484,186.803207 
	C524.312744,172.120880 521.276855,157.838516 514.201721,144.678650 
	C513.538330,143.444702 512.158447,142.330261 513.227356,140.304504 
	C516.452942,141.846237 518.492920,144.692581 520.740601,147.150070 
	C547.561340,176.474655 555.150330,210.711426 547.317017,249.217209 
	C538.131653,294.369263 517.241394,332.997864 483.793091,364.607239 
	C452.898773,393.803009 417.103577,415.363922 377.577850,430.826477 
	C371.489563,433.208191 370.451050,432.386871 371.591644,425.770386 
	C373.085083,417.106873 378.774658,410.916931 384.460815,404.810425 
	C394.531769,393.994904 407.258575,386.428284 418.589966,377.150604 
	C432.412903,365.832825 445.646240,353.941345 456.741364,339.825867 
	C464.038086,330.542786 468.670013,321.278076 469.513885,312.532104 
	C461.923309,322.833740 453.170319,330.561127 443.887207,337.703430 
	C439.298615,341.233856 434.197113,343.653961 428.205414,343.157623 
	C424.369415,342.839905 420.846130,341.319244 419.224121,337.716888 
	C417.639954,334.198517 420.588379,331.818848 422.642700,329.498016 
	C434.026337,316.637512 444.855286,303.339050 454.945679,288.990906 
z"/>
<path fill="#000000" opacity="1.000000" stroke="none" 
	d="
M279.860260,390.181183 
	C255.872253,372.904480 234.570023,353.351471 218.242874,328.953644 
	C200.992844,303.176697 189.368774,275.080688 184.602081,244.249573 
	C181.960037,227.160675 181.187881,210.167770 185.734985,193.322281 
	C190.935684,174.055359 201.379730,157.779404 215.082382,143.482254 
	C216.183685,142.333160 217.153610,140.821655 219.017914,140.622070 
	C220.352921,141.749435 219.309753,142.793472 218.859085,143.699753 
	C201.429474,178.749664 202.468658,213.682190 219.909409,248.295731 
	C229.345810,267.023590 225.427826,263.389343 244.412918,263.679718 
	C255.915298,263.855591 264.572723,267.802277 270.706238,278.395813 
	C281.002197,296.178558 294.532684,311.684906 307.913422,327.219635 
	C308.565765,327.976990 309.322388,328.653595 309.909668,329.456207 
	C311.719849,331.930054 314.990112,334.118622 313.430725,337.650543 
	C311.734650,341.492035 307.930206,342.806335 303.961273,343.150452 
	C299.487213,343.538300 295.365295,342.296753 291.696960,339.721771 
	C281.972534,332.895538 273.047211,325.188202 265.614655,315.851654 
	C265.117096,315.226593 264.697998,314.421631 263.367432,314.554688 
	C263.134186,319.218536 265.305328,323.126007 267.419098,326.984314 
	C276.627869,343.793335 290.221741,356.784210 304.373260,369.297302 
	C313.749237,377.587769 324.004883,384.741241 333.838074,392.440582 
	C342.114349,398.920898 349.999939,405.857880 356.041718,414.598755 
	C358.715393,418.466919 360.959137,422.562531 361.259399,427.380707 
	C361.545593,431.973328 360.396820,432.855530 356.077820,431.209106 
	C344.709015,426.875214 333.557495,422.015381 322.770416,416.388916 
	C307.988831,408.679016 293.624603,400.256653 279.860260,390.181183 
z"/>
<path fill="#000000" opacity="1.000000" stroke="none" 
	d="
M412.252350,180.253540 
	C410.623444,181.617371 409.793243,183.505844 407.356445,183.625931 
	C400.177277,169.828430 386.757965,169.086761 373.543793,168.395203 
	C369.711548,168.194641 367.325531,167.310043 364.827484,164.171707 
	C330.922119,121.575699 273.245941,119.353561 236.448227,155.190887 
	C226.959915,164.431580 220.000336,175.200562 215.369873,187.549255 
	C215.090347,188.294739 214.664520,188.985367 214.178146,189.958984 
	C212.138687,188.636551 212.750229,186.841187 212.863480,185.397461 
	C214.115295,169.438797 218.080170,154.210449 225.853271,140.152206 
	C228.594955,135.193649 233.696930,132.517044 238.252457,129.511337 
	C276.105804,104.536118 321.191498,105.444427 358.024628,131.812683 
	C361.393829,134.224640 364.562866,138.133270 368.190277,138.619263 
	C371.697479,139.089127 374.490326,134.374252 377.731323,132.111481 
	C398.440552,117.653023 421.326447,110.726440 446.500916,112.811836 
	C467.552521,114.555695 486.599609,122.065468 503.211090,135.341156 
	C506.633453,138.076263 507.967621,142.172287 509.563171,145.935913 
	C514.385132,157.310135 517.730103,169.134811 519.107117,181.457489 
	C519.154663,181.882797 518.817627,182.351105 518.281677,183.873749 
	C506.663177,159.746002 488.934662,143.565811 463.688751,135.909073 
	C466.461792,141.936279 469.437500,147.650085 469.682037,154.261002 
	C469.731079,155.586853 469.996887,156.913483 469.951965,158.232574 
	C469.600555,168.550568 469.468811,168.595901 459.921692,165.297134 
	C445.461060,160.300674 432.755157,164.806580 420.851471,172.874161 
	C417.840607,174.914734 415.272675,177.608780 412.252350,180.253540 
M400.919495,167.397156 
	C401.830048,167.807587 402.861694,168.061066 403.630951,168.654633 
	C407.766144,171.845428 410.776825,171.491974 415.088043,167.767319 
	C425.826904,158.489517 438.949982,154.784149 453.069519,155.180099 
	C459.468994,155.359543 460.343750,155.016357 460.687683,148.742035 
	C460.806000,146.583633 460.859222,144.398239 460.662842,142.250717 
	C460.202942,137.220917 456.282349,132.890488 451.323120,132.165802 
	C425.173798,128.344559 402.247833,135.616013 382.239594,152.574265 
	C378.177063,156.017532 374.232544,159.641235 370.893524,164.736938 
	C381.437408,163.246124 390.993591,163.300964 400.919495,167.397156 
z"/>
<path fill="#000000" opacity="1.000000" stroke="none" 
	d="
M391.944733,338.064331 
	C406.723419,332.096191 416.756226,321.079010 426.322266,309.989197 
	C425.966705,307.964417 424.735474,307.651550 423.740845,307.116241 
	C416.149902,303.030945 412.492279,296.818756 414.054932,288.186371 
	C414.551453,285.443481 413.049927,284.748199 411.355835,283.619995 
	C401.484894,277.046295 391.944092,270.089996 384.743835,260.432556 
	C376.414185,249.260437 372.552063,237.097931 375.119415,223.001755 
	C378.093201,206.674179 376.942047,190.542145 371.191437,174.853653 
	C370.812408,173.819565 369.950104,172.784698 370.996185,171.591934 
	C372.941681,171.560806 373.307098,173.263885 373.960999,174.483032 
	C380.474792,186.627975 385.196960,199.364105 385.960938,213.265030 
	C386.306854,219.559616 384.651733,225.818954 385.599243,232.179581 
	C387.736786,246.528885 395.502258,257.459167 406.427887,266.310181 
	C414.591827,272.923859 423.401947,278.426361 433.558716,281.866974 
	C447.528748,286.599304 448.334625,289.822418 440.351562,301.955048 
	C431.418304,315.531677 421.391113,328.171448 408.501587,338.208618 
	C394.496796,349.114166 379.529785,353.547180 362.641449,344.321533 
	C357.701508,341.622955 352.274261,339.800568 347.026733,337.684814 
	C339.935822,334.825897 335.131714,336.177826 329.277893,342.519135 
	C324.783112,347.388123 324.273346,351.984833 327.462982,358.590576 
	C328.023285,359.750916 329.161743,360.718567 328.764343,362.224945 
	C323.945679,362.465149 318.603577,356.260071 317.849884,349.266663 
	C317.009033,341.464691 321.193176,335.996796 326.640259,331.194183 
	C332.210022,326.283508 339.018494,326.188385 345.586121,326.889160 
	C346.680725,324.604126 345.467010,323.401306 344.924622,322.085114 
	C344.028900,319.911438 343.524384,317.812988 346.103821,316.494080 
	C348.767914,315.131866 350.770508,316.474091 351.866943,318.753967 
	C354.609070,324.455780 358.343781,329.263062 363.746582,332.584717 
	C372.309906,337.849579 381.220093,341.690979 391.944733,338.064331 
z"/>
<path fill="#000000" opacity="1.000000" stroke="none" 
	d="
M280.968811,247.816757 
	C278.501801,251.831818 276.076843,255.418472 272.635925,258.167023 
	C269.131317,260.966431 265.184326,262.515839 260.626801,262.241180 
	C259.201294,262.155243 257.985321,261.693268 257.488953,260.226929 
	C256.945435,258.621338 257.936981,257.688538 259.172394,257.032684 
	C265.776215,253.526917 268.184418,247.064102 270.678467,240.694717 
	C275.330750,228.813538 276.125977,216.078796 278.805725,203.759949 
	C283.332916,182.948441 292.948608,165.421158 312.274475,154.609238 
	C315.490265,152.810165 318.922821,151.516998 322.551575,150.862656 
	C324.259430,150.554718 326.060547,150.764359 326.774719,152.650772 
	C327.548981,154.695999 325.966461,155.612396 324.474945,156.479080 
	C304.354523,168.170578 295.347504,186.649231 292.222198,208.862381 
	C290.341156,222.232010 287.547150,235.397079 280.968811,247.816757 
z"/>
<path fill="#000000" opacity="1.000000" stroke="none" 
	d="
M471.531586,243.608582 
	C470.264374,242.730530 470.047272,243.251236 469.657349,244.250244 
	C467.603607,249.511780 460.629822,252.954819 454.752869,251.653519 
	C455.809296,249.685699 458.073181,249.637985 459.600555,248.482376 
	C463.518219,245.518372 465.809509,241.624390 464.587830,236.815033 
	C463.495697,232.515762 459.586090,231.452789 455.525665,231.291443 
	C452.422272,231.168137 449.836823,230.034271 449.132233,226.793808 
	C448.403412,223.441910 450.705414,221.584473 453.325073,220.199097 
	C457.885315,217.787460 462.446747,215.277390 467.707489,214.792480 
	C473.535583,214.255280 476.050690,218.018677 473.485016,223.293015 
	C473.124054,224.035080 472.611359,224.706497 472.141907,225.392105 
	C470.038116,228.464249 467.670654,231.792557 470.085541,235.425537 
	C472.865570,239.607910 477.356323,240.311035 482.113129,239.507874 
	C483.680237,239.243271 484.994629,237.821899 486.814972,238.424759 
	C483.558563,243.046143 477.462494,245.187637 471.531586,243.608582 
z"/>
<path fill="#000000" opacity="1.000000" stroke="none" 
	d="
M336.538208,238.310410 
	C334.189453,234.367050 333.000122,230.393356 332.131531,226.304733 
	C331.855560,225.005554 331.355835,223.566467 333.054718,222.884872 
	C334.433990,222.331467 335.128052,223.492767 335.927979,224.331116 
	C337.763550,226.254730 339.489838,228.315643 341.514099,230.019501 
	C346.198395,233.962341 351.691772,235.471130 357.798279,235.017334 
	C359.694977,234.876389 361.780182,234.083633 363.997223,236.274521 
	C361.473999,241.452087 356.461517,243.100952 351.486053,244.374146 
	C345.386017,245.935074 340.373505,243.823456 336.538208,238.310410 
z"/>
<path fill="#000000" opacity="1.000000" stroke="none" 
	d="
M419.177734,219.232361 
	C418.044373,220.664429 417.131561,221.806396 415.979706,223.247467 
	C411.802246,219.927582 414.611572,216.205276 415.163940,213.159653 
	C416.052521,208.260056 418.686462,203.883514 424.123535,202.945267 
	C430.976013,201.762787 437.022583,203.896439 442.256012,209.083618 
	C433.649048,210.459900 424.937439,211.138489 419.177734,219.232361 
z"/>
<path fill="#000000" opacity="1.000000" stroke="none" 
	d="
M482.778076,194.402435 
	C473.526154,193.119934 467.681244,198.481644 462.076599,204.585785 
	C460.139679,198.770248 463.321136,190.661255 467.975708,188.072037 
	C472.216583,185.712952 480.962311,187.478241 484.029053,191.297852 
	C485.204651,192.762009 485.567444,193.959259 482.778076,194.402435 
z"/>
<path fill="#000000" opacity="1.000000" stroke="none" 
	d="
M394.070496,187.066437 
	C392.491028,181.812347 388.820221,178.379120 385.273560,174.535614 
	C391.874969,173.672760 400.974304,179.572342 401.932892,184.851181 
	C402.661896,188.865692 400.081360,192.739700 395.734070,194.033295 
	C394.239594,192.076141 395.201355,189.507172 394.070496,187.066437 
z"/>
</svg>